<svg width="32" height="32" viewBox="0 0 32 32" fill="none" xmlns="http://www.w3.org/2000/svg">
<path d="M6.66655 9.59988C6.66655 8.82191 6.9756 8.07581 7.5257 7.5257C8.07581 6.9756 8.82191 6.66655 9.59988 6.66655H10.9332C11.7077 6.66611 12.4507 6.35935 12.9999 5.81322L13.9332 4.87988C14.2058 4.60575 14.5299 4.38821 14.8869 4.23976C15.2438 4.09131 15.6266 4.01489 16.0132 4.01489C16.3998 4.01489 16.7826 4.09131 17.1396 4.23976C17.4965 4.38821 17.8206 4.60575 18.0932 4.87988L19.0266 5.81322C19.5759 6.35988 20.3199 6.66655 21.0932 6.66655H22.4265C23.2045 6.66655 23.9506 6.9756 24.5007 7.5257C25.0508 8.07581 25.3599 8.82191 25.3599 9.59988V10.9332C25.3599 11.7065 25.6666 12.4505 26.2132 12.9999L27.1466 13.9332C27.4207 14.2058 27.6382 14.5299 27.7867 14.8869C27.9351 15.2438 28.0115 15.6266 28.0115 16.0132C28.0115 16.3998 27.9351 16.7826 27.7867 17.1396C27.6382 17.4965 27.4207 17.8206 27.1466 18.0932L26.2132 19.0266C25.6671 19.5758 25.3603 20.3187 25.3599 21.0932V22.4265C25.3599 23.2045 25.0508 23.9506 24.5007 24.5007C23.9506 25.0508 23.2045 25.3599 22.4265 25.3599H21.0932C20.3187 25.3603 19.5758 25.6671 19.0266 26.2132L18.0932 27.1466C17.8206 27.4207 17.4965 27.6382 17.1396 27.7867C16.7826 27.9351 16.3998 28.0115 16.0132 28.0115C15.6266 28.0115 15.2438 27.9351 14.8869 27.7867C14.5299 27.6382 14.2058 27.4207 13.9332 27.1466L12.9999 26.2132C12.4507 25.6671 11.7077 25.3603 10.9332 25.3599H9.59988C8.82191 25.3599 8.07581 25.0508 7.5257 24.5007C6.9756 23.9506 6.66655 23.2045 6.66655 22.4265V21.0932C6.66611 20.3187 6.35935 19.5758 5.81322 19.0266L4.87988 18.0932C4.60575 17.8206 4.38821 17.4965 4.23976 17.1396C4.09131 16.7826 4.01489 16.3998 4.01489 16.0132C4.01489 15.6266 4.09131 15.2438 4.23976 14.8869C4.38821 14.5299 4.60575 14.2058 4.87988 13.9332L5.81322 12.9999C6.35935 12.4507 6.66611 11.7077 6.66655 10.9332V9.59988Z" stroke="#A5E1BC" stroke-width="2.66667" stroke-linecap="round" stroke-linejoin="round"/>
<path d="M12 15.9999L14.6667 18.6666L20 13.3333" stroke="#A5E1BC" stroke-width="2.66667" stroke-linecap="round" stroke-linejoin="round"/>
</svg>
