<svg width="40" height="40" viewBox="0 0 40 40" fill="none" xmlns="http://www.w3.org/2000/svg">
<path fill-rule="evenodd" clip-rule="evenodd" d="M3.91016 7.75934V12.7398H8.89219V7.75934H3.91016ZM7.80938 8.79606C7.88516 8.83903 7.91016 8.93434 7.86719 9.00934L6.34766 11.6445C6.32344 11.6859 6.28125 11.7148 6.23203 11.7218L6.22813 11.7226L6.22422 11.7234C6.22031 11.7242 6.21563 11.7242 6.21172 11.7242C6.17188 11.7242 6.13516 11.7101 6.10703 11.6828L4.96484 10.589C4.90234 10.5289 4.89766 10.4312 4.95781 10.3679C5.01719 10.3062 5.11641 10.3031 5.17891 10.3632L6.17422 11.3179L7.59609 8.85387C7.60615 8.83591 7.61969 8.82015 7.63591 8.80749C7.65214 8.79483 7.67073 8.78554 7.69059 8.78015C7.71045 8.77477 7.73119 8.7734 7.75158 8.77613C7.77198 8.77886 7.79163 8.78564 7.80938 8.79606ZM7.86719 18.7601L6.34766 21.3953C6.32344 21.4367 6.28125 21.4656 6.23203 21.4726L6.22813 21.4734L6.22422 21.4742C6.22031 21.475 6.21563 21.475 6.21172 21.475C6.17188 21.475 6.13516 21.4609 6.10703 21.4336L4.96484 20.339C4.90234 20.2789 4.89766 20.182 4.95781 20.1187C5.01719 20.057 5.11641 20.0539 5.17891 20.114L6.17422 21.0679L7.59609 18.6047C7.63984 18.5297 7.73438 18.5039 7.81016 18.5476C7.88438 18.5898 7.91016 18.6843 7.86719 18.7601ZM8.89219 17.5093H3.91016V22.4906H8.89219V17.5093ZM7.80859 28.2976C7.88437 28.3414 7.91016 28.4351 7.86641 28.5109L6.34687 31.1461C6.33268 31.1698 6.3127 31.1896 6.28879 31.2035C6.26488 31.2175 6.23782 31.2251 6.21016 31.2257C6.16953 31.2257 6.13203 31.2101 6.10313 31.182L4.96328 30.0898C4.90078 30.0296 4.89609 29.932 4.95703 29.8687C5.01641 29.8062 5.11562 29.8047 5.17812 29.864L6.17344 30.8179L7.59531 28.3539C7.63828 28.2789 7.73437 28.2539 7.80859 28.2976ZM8.89219 27.2601H3.91016V32.2406H8.89219V27.2601Z" fill="#F7FCF9"/>
<path fill-rule="evenodd" clip-rule="evenodd" d="M8.57969 31.9281H4.22266V27.5726H8.57969V31.9281ZM9.05 26.6351H3.75547C3.49609 26.6351 3.28516 26.8453 3.28516 27.1039V32.3969C3.28516 32.6562 3.49609 32.8656 3.75547 32.8656H9.05C9.30625 32.8656 9.51719 32.6562 9.51719 32.3969V27.1039C9.51719 26.8453 9.30625 26.6351 9.05 26.6351ZM4.74766 30.3148L5.8875 31.407C5.97405 31.4912 6.09019 31.5381 6.21094 31.5375C6.29315 31.5369 6.37381 31.5151 6.44502 31.474C6.51624 31.4329 6.57556 31.374 6.61719 31.3031L8.1375 28.6664C8.26563 28.4422 8.19219 28.1562 7.96484 28.0266C7.74062 27.8969 7.45625 27.9742 7.325 28.1976L6.10156 30.3164L5.39375 29.6383C5.20781 29.4586 4.91016 29.4648 4.73125 29.6523C4.68861 29.6968 4.65519 29.7493 4.63292 29.8067C4.61065 29.8641 4.59997 29.9254 4.60149 29.987C4.60302 30.0486 4.61672 30.1093 4.6418 30.1655C4.66689 30.2218 4.70287 30.2725 4.74766 30.3148ZM16.7422 30.975C16.7422 31.2336 16.5312 31.4437 16.2719 31.4437H11.2109C10.9516 31.4437 10.7406 31.2336 10.7406 30.975C10.7406 30.7156 10.9516 30.5062 11.2109 30.5062H16.2719C16.5312 30.5062 16.7422 30.7156 16.7422 30.975ZM16.7422 28.5266C16.7422 28.7851 16.5312 28.9953 16.2719 28.9953H11.2109C10.9516 28.9953 10.7406 28.7851 10.7406 28.5266C10.7406 28.2672 10.9516 28.0578 11.2109 28.0578H16.2719C16.5312 28.0578 16.7422 28.2672 16.7422 28.5266ZM8.57969 12.4273H4.22266V8.07186H8.57969V12.4273ZM9.05 7.13436H3.75547C3.49609 7.13436 3.28516 7.34374 3.28516 7.60311V12.8961C3.28516 13.1547 3.49609 13.3648 3.75547 13.3648H9.05C9.30625 13.3648 9.51719 13.1547 9.51719 12.8961V7.60311C9.51719 7.34374 9.30625 7.13436 9.05 7.13436ZM4.74766 10.814L5.8875 11.9055C5.97405 11.9897 6.09019 12.0365 6.21094 12.0359C6.23359 12.0359 6.25547 12.0344 6.275 12.0312C6.34568 12.0213 6.41318 11.9954 6.47245 11.9557C6.53171 11.9159 6.58119 11.8632 6.61719 11.8015L8.1375 9.16561C8.26563 8.94139 8.19219 8.65468 7.96484 8.52499C7.74062 8.39608 7.45625 8.47264 7.325 8.69686L6.10156 10.8156L5.39375 10.1367C5.20781 9.9578 4.91016 9.96405 4.73125 10.1508C4.55234 10.3375 4.55859 10.6344 4.74766 10.814ZM10.7398 11.4734C10.7398 11.2148 10.9508 11.0047 11.2102 11.0047H19.8055C20.0648 11.0047 20.2758 11.2148 20.2758 11.4734C20.2758 11.7328 20.0648 11.9422 19.8055 11.9422H11.2109C10.9516 11.9422 10.7398 11.7328 10.7398 11.4734ZM10.7398 9.02499C10.7398 8.76639 10.9508 8.55624 11.2102 8.55624H16.6266C16.8859 8.55624 17.0969 8.76639 17.0969 9.02499C17.0969 9.28358 16.8859 9.49374 16.6266 9.49374H11.2109C10.9516 9.49374 10.7398 9.28358 10.7398 9.02499ZM8.57969 22.1781H4.22266V17.8219H8.57969V22.1781ZM9.05 16.8844H3.75547C3.49609 16.8844 3.28516 17.0945 3.28516 17.3531V22.6469C3.28516 22.9055 3.49609 23.1156 3.75547 23.1156H9.05C9.30625 23.1156 9.51719 22.9055 9.51719 22.6469V17.3531C9.51719 17.0945 9.30625 16.8844 9.05 16.8844ZM4.74766 20.564L5.8875 21.6562C5.97405 21.7404 6.09019 21.7873 6.21094 21.7867C6.23359 21.7867 6.25547 21.7851 6.275 21.782C6.34568 21.7721 6.41318 21.7462 6.47245 21.7064C6.53171 21.6667 6.58119 21.614 6.61719 21.5523L8.1375 18.9164C8.26563 18.6922 8.19219 18.4055 7.96484 18.2758C7.74062 18.1461 7.45625 18.2234 7.325 18.4476L6.10156 20.5656L5.39375 19.8875C5.20781 19.7086 4.91016 19.7148 4.73125 19.9016C4.55234 20.0883 4.55859 20.3851 4.74766 20.564ZM10.7398 21.2242C10.7398 20.9656 10.9508 20.7555 11.2102 20.7555H13.4672C13.7266 20.7555 13.9344 20.9656 13.9344 21.2242C13.9344 21.4828 13.7266 21.693 13.4672 21.693H11.2109C10.9516 21.693 10.7398 21.4828 10.7398 21.2242ZM10.7398 18.7758C10.7398 18.5164 10.9508 18.307 11.2102 18.307H15.5062C15.7656 18.307 15.9766 18.5164 15.9766 18.7758C15.9766 19.0344 15.7656 19.2445 15.5062 19.2445H11.2109C10.9516 19.2445 10.7398 19.0344 10.7398 18.7758ZM38.4305 23.1375C38.6195 22.893 38.7023 22.5875 38.6641 22.2773C38.6258 21.9664 38.4688 21.6906 38.2258 21.5008L35.7703 19.5914C35.7135 19.548 35.6674 19.4921 35.6357 19.428C35.604 19.3639 35.5875 19.2934 35.5875 19.2219V14.3266C35.5875 14.2219 35.5039 14.1367 35.3984 14.1367H33.4461C33.3406 14.1367 33.2539 14.2219 33.2539 14.3266V16.6781C33.2539 16.8578 33.1547 17.0211 32.9914 17.0992C32.9128 17.1379 32.8248 17.1537 32.7376 17.1447C32.6504 17.1357 32.5675 17.1024 32.4984 17.0484L27.6969 13.3156C27.4055 13.0891 27.0148 13.0891 26.7234 13.3156L16.1984 21.5008C16.0777 21.5949 15.9769 21.7119 15.9016 21.8452C15.8264 21.9785 15.7783 22.1254 15.7602 22.2773C15.7219 22.5875 15.8047 22.893 15.9937 23.1375C16.1859 23.382 16.4609 23.5383 16.7719 23.5773C17.082 23.6156 17.3867 23.5328 17.6297 23.3422L26.1508 16.718C26.468 16.4711 26.8391 16.3476 27.2102 16.3476C27.5844 16.3476 27.9563 16.4711 28.2727 16.718L36.7906 23.3422C37.0367 23.5328 37.3414 23.6156 37.6516 23.5773C37.9625 23.5383 38.2383 23.382 38.4305 23.1375ZM35.2453 34.4539H31.1992V26.4039C31.1992 25.7328 30.6547 25.1867 29.9828 25.1867H24.4414C23.7695 25.1867 23.225 25.7328 23.225 26.4039V34.4539H19.1758C18.9898 34.4539 18.8367 34.3008 18.8367 34.1117V23.5937L26.7242 17.4578C27.0156 17.2312 27.4062 17.232 27.6977 17.4578L35.5883 23.5937V34.1117C35.5879 34.2025 35.5516 34.2894 35.4873 34.3535C35.4231 34.4176 35.3361 34.4537 35.2453 34.4539ZM30.2609 34.4539V26.4039C30.2609 26.2523 30.1328 26.1242 29.9828 26.1242H24.4414C24.2875 26.1242 24.1594 26.2523 24.1594 26.4039V34.4539H30.2609ZM1.32891 6.36874V34.4539H17.9461C17.9141 34.3445 17.8984 34.2305 17.8984 34.1117V24.2812C17.5211 24.4812 17.0883 24.5617 16.6531 24.507C16.0961 24.4375 15.5969 24.1555 15.2539 23.7133C14.9117 23.2711 14.7609 22.7195 14.8281 22.1609C14.8984 21.6016 15.1805 21.1047 15.6219 20.7609L22.9719 15.0453V10.0008H19.8922C19.1336 10.0008 18.5187 9.38436 18.5187 8.62577V5.54608H2.15156C1.69688 5.54608 1.32891 5.91561 1.32891 6.36874ZM19.457 6.20936L22.3094 9.06327H19.8922C19.6523 9.06327 19.457 8.86718 19.457 8.62577V6.20936ZM39.5922 22.1609C39.525 21.6016 39.2398 21.1047 38.7984 20.7609L36.5258 18.9922V14.3266C36.5258 13.7055 36.0203 13.1992 35.3992 13.1992H33.4469C32.8227 13.1992 32.3203 13.7055 32.3203 14.3266V15.7203L28.2742 12.575C27.6406 12.0812 26.7859 12.0812 26.1516 12.575L23.9109 14.3164V9.53202C23.9109 9.4078 23.8633 9.28827 23.7734 9.20077L19.3203 4.74608C19.2319 4.65813 19.1122 4.6087 18.9875 4.60858H2.15156C1.18125 4.60858 0.390625 5.39842 0.390625 6.36874V34.9226C0.390625 35.1812 0.601563 35.3914 0.860938 35.3914H35.2445C35.9523 35.3914 36.525 34.8172 36.525 34.1117V24.2812C36.8258 24.4406 37.1586 24.5242 37.5016 24.5242C37.5914 24.5242 37.6805 24.5187 37.7672 24.507C38.3273 24.4375 38.8234 24.1555 39.1695 23.7133C39.5125 23.2711 39.6625 22.7195 39.5922 22.1609Z" fill="#078939"/>
</svg>
