<svg width="41" height="40" viewBox="0 0 41 40" fill="none" xmlns="http://www.w3.org/2000/svg">
<g clip-path="url(#clip0_112_11010)">
<path d="M37.1038 6.90712C31.6003 5.39915 26.0645 3.05111 21.0947 0.116895C20.9651 0.0403681 20.8174 0 20.667 0C20.5165 0 20.3688 0.0403681 20.2392 0.116895C15.1261 3.1354 9.88941 5.35642 4.22966 6.90712C4.05178 6.95584 3.89485 7.06166 3.78299 7.20829C3.67114 7.35493 3.61057 7.53425 3.6106 7.71868V16.316C3.6106 25.1693 7.69488 31.0296 11.1213 34.3867C14.81 38.0012 19.1069 40 20.667 40C22.2269 40 26.5238 38.0012 30.2125 34.3867C33.6388 31.0297 37.7229 25.1694 37.7229 16.316V7.7186C37.7229 7.33954 37.4694 7.00719 37.1038 6.90712ZM36.0401 16.3159C36.0401 24.5849 32.2306 30.0532 29.0347 33.1846C25.4073 36.7389 21.5289 38.3171 20.667 38.3171C19.805 38.3171 15.9264 36.7389 12.2989 33.1846C9.10309 30.0532 5.29348 24.5849 5.29348 16.3159V8.35735C10.7058 6.82063 15.7463 4.67603 20.6671 1.81642C25.4651 4.60017 30.757 6.85141 36.0401 8.35703V16.3159Z" fill="#078939"/>
<path d="M13.2089 8.26325C13.0386 7.83083 12.55 7.61841 12.1175 7.7888C10.6087 8.38307 9.07922 8.92354 7.53199 9.40919C7.36105 9.46281 7.21169 9.56959 7.10564 9.71399C6.9996 9.85838 6.9424 10.0328 6.94238 10.212V13.4613C6.94238 13.926 7.31918 14.3027 7.78379 14.3027C8.2484 14.3027 8.62519 13.926 8.62519 13.4613V10.8269C10.0099 10.3788 11.3803 9.88777 12.7344 9.35442C13.1668 9.18419 13.3793 8.69567 13.2089 8.26325ZM14.8072 8.42286C14.9201 8.42286 15.0347 8.40012 15.1446 8.35216L15.1601 8.34544C15.5858 8.15887 15.7775 7.66333 15.591 7.23778C15.4043 6.81208 14.9059 6.6195 14.4807 6.80591L14.4671 6.81177C14.0411 6.99778 13.8488 7.49294 14.0348 7.91872C14.1729 8.23481 14.4826 8.42286 14.8072 8.42286ZM30.692 27.1315C30.3032 26.8774 29.7818 26.9867 29.5273 27.3757C28.8339 28.4369 28.0205 29.4532 27.1093 30.3959C26.3598 31.1712 25.553 31.889 24.6957 32.5432C24.3263 32.8249 24.2552 33.3529 24.5368 33.7225C24.6154 33.8256 24.7167 33.9092 24.8328 33.9666C24.949 34.0241 25.0769 34.0539 25.2065 34.0538C25.3845 34.0538 25.5638 33.9976 25.7161 33.8814C26.6406 33.1758 27.5107 32.4017 28.319 31.5656C29.3043 30.5465 30.1847 29.4465 30.9361 28.2961C31.1904 27.9071 31.081 27.3857 30.692 27.1315ZM22.7417 33.8628L22.6934 33.8912C22.2913 34.1241 22.1539 34.6388 22.3867 35.0409C22.442 35.1366 22.5156 35.2204 22.6034 35.2876C22.6911 35.3548 22.7912 35.404 22.898 35.4325C23.0048 35.461 23.1161 35.4681 23.2256 35.4535C23.3352 35.4389 23.4408 35.4029 23.5364 35.3475L23.5921 35.3147C23.9931 35.0799 24.1278 34.5645 23.8929 34.1635C23.6579 33.7626 23.1425 33.6282 22.7417 33.8628ZM14.9316 18.2828C14.415 17.7661 13.7279 17.4817 12.9971 17.4817C12.2663 17.4817 11.5791 17.7661 11.0622 18.2828C9.99559 19.3497 9.99559 21.0856 11.0622 22.1524L16.0307 27.1207C16.5474 27.6372 17.2345 27.9217 17.9654 27.9217C18.6962 27.9217 19.3833 27.6372 19.9001 27.1205L30.2721 16.7485C31.3386 15.6814 31.3386 13.9457 30.2719 12.8792C29.7552 12.3625 29.0681 12.0781 28.3371 12.0781C27.6063 12.0781 26.9192 12.3625 26.4024 12.8792L17.9653 21.3163L14.9316 18.2828ZM27.5924 14.0692C27.69 13.9711 27.8061 13.8934 27.9339 13.8404C28.0618 13.7875 28.1989 13.7605 28.3372 13.7609C28.6188 13.7609 28.8832 13.8704 29.0821 14.0692C29.4927 14.4797 29.4927 15.148 29.082 15.5587L18.7102 25.9306C18.5114 26.1294 18.2468 26.2389 17.9654 26.2389C17.6839 26.2389 17.4193 26.1294 17.2204 25.9306L12.2521 20.9625C11.8414 20.5518 11.8414 19.8835 12.252 19.4729C12.4509 19.2741 12.7155 19.1645 12.997 19.1645C13.2785 19.1645 13.5429 19.274 13.7418 19.4728L17.3703 23.1014C17.5282 23.2591 17.7421 23.3478 17.9653 23.3478C18.1885 23.3478 18.4024 23.2592 18.5601 23.1014L27.5924 14.0692Z" fill="#078939"/>
</g>
<defs>
<clipPath id="clip0_112_11010">
<rect width="40" height="40" fill="white" transform="translate(0.666748)"/>
</clipPath>
</defs>
</svg>
