<svg width="41" height="40" viewBox="0 0 41 40" fill="none" xmlns="http://www.w3.org/2000/svg">
<path d="M11.5696 9.6875C11.5692 9.35608 11.4374 9.03833 11.2031 8.80398C10.9687 8.56963 10.651 8.43783 10.3196 8.4375H7.81958C7.48816 8.43783 7.17041 8.56963 6.93606 8.80398C6.70171 9.03833 6.56991 9.35608 6.56958 9.6875V11.5625C6.56991 11.8939 6.70171 12.2117 6.93606 12.446C7.17041 12.6804 7.48816 12.8122 7.81958 12.8125H10.3196C10.651 12.8122 10.9687 12.6804 11.2031 12.446C11.4374 12.2117 11.5692 11.8939 11.5696 11.5625V9.6875ZM7.81958 11.5625V9.6875H10.3196V11.5625H7.81958ZM19.0696 9.6875C19.0692 9.35608 18.9374 9.03833 18.7031 8.80398C18.4687 8.56963 18.151 8.43783 17.8196 8.4375H15.3196C14.9882 8.43783 14.6704 8.56963 14.4361 8.80398C14.2017 9.03833 14.0699 9.35608 14.0696 9.6875V11.5625C14.0699 11.8939 14.2017 12.2117 14.4361 12.446C14.6704 12.6804 14.9882 12.8122 15.3196 12.8125H17.8196C18.151 12.8122 18.4687 12.6804 18.7031 12.446C18.9374 12.2117 19.0692 11.8939 19.0696 11.5625V9.6875ZM15.3196 11.5625V9.6875H17.8196V11.5625H15.3196ZM11.5696 15.3125C11.5692 14.9811 11.4374 14.6633 11.2031 14.429C10.9687 14.1946 10.651 14.0628 10.3196 14.0625H7.81958C7.48816 14.0628 7.17041 14.1946 6.93606 14.429C6.70171 14.6633 6.56991 14.9811 6.56958 15.3125V17.1875C6.56991 17.5189 6.70171 17.8367 6.93606 18.071C7.17041 18.3054 7.48816 18.4372 7.81958 18.4375H10.3196C10.651 18.4372 10.9687 18.3054 11.2031 18.071C11.4374 17.8367 11.5692 17.5189 11.5696 17.1875V15.3125ZM7.81958 17.1875V15.3125H10.3196V17.1875H7.81958ZM19.0696 15.3125C19.0692 14.9811 18.9374 14.6633 18.7031 14.429C18.4687 14.1946 18.151 14.0628 17.8196 14.0625H15.3196C14.9882 14.0628 14.6704 14.1946 14.4361 14.429C14.2017 14.6633 14.0699 14.9811 14.0696 15.3125V17.1875C14.0699 17.5189 14.2017 17.8367 14.4361 18.071C14.6704 18.3054 14.9882 18.4372 15.3196 18.4375H17.8196C18.151 18.4372 18.4687 18.3054 18.7031 18.071C18.9374 17.8367 19.0692 17.5189 19.0696 17.1875V15.3125ZM15.3196 17.1875V15.3125H17.8196V17.1875H15.3196ZM10.3196 19.6875H7.81958C7.48816 19.6878 7.17041 19.8196 6.93606 20.054C6.70171 20.2883 6.56991 20.6061 6.56958 20.9375V22.8125C6.56991 23.1439 6.70171 23.4617 6.93606 23.696C7.17041 23.9304 7.48816 24.0622 7.81958 24.0625H10.3196C10.651 24.0622 10.9687 23.9304 11.2031 23.696C11.4374 23.4617 11.5692 23.1439 11.5696 22.8125V20.9375C11.5692 20.6061 11.4374 20.2883 11.2031 20.054C10.9687 19.8196 10.651 19.6878 10.3196 19.6875ZM7.81958 22.8125V20.9375H10.3196V22.8125H7.81958ZM17.8196 19.6875H15.3196C14.9882 19.6878 14.6704 19.8196 14.4361 20.054C14.2017 20.2883 14.0699 20.6061 14.0696 20.9375V22.8125C14.0699 23.1439 14.2017 23.4617 14.4361 23.696C14.6704 23.9304 14.9882 24.0622 15.3196 24.0625H17.8196C18.151 24.0622 18.4687 23.9304 18.7031 23.696C18.9374 23.4617 19.0692 23.1439 19.0696 22.8125V20.9375C19.0692 20.6061 18.9374 20.2883 18.7031 20.054C18.4687 19.8196 18.151 19.6878 17.8196 19.6875ZM15.3196 22.8125V20.9375H17.8196V22.8125H15.3196Z" fill="#078939"/>
<path d="M2.19458 30.3125C2.02882 30.3125 1.86985 30.3783 1.75264 30.4956C1.63543 30.6128 1.56958 30.7717 1.56958 30.9375C1.56958 31.1033 1.63543 31.2622 1.75264 31.3794C1.86985 31.4967 2.02882 31.5625 2.19458 31.5625H21.7571C21.9228 31.5625 22.0818 31.4967 22.199 31.3794C22.3162 31.2622 22.3821 31.1033 22.3821 30.9375C22.3821 30.7717 22.3162 30.6128 22.199 30.4956C22.0818 30.3783 21.9228 30.3125 21.7571 30.3125H15.9446V25.9375C15.9446 25.7717 15.8787 25.6128 15.7615 25.4956C15.6443 25.3783 15.4853 25.3125 15.3196 25.3125H10.3196C10.1538 25.3125 9.99485 25.3783 9.87764 25.4956C9.76043 25.6128 9.69458 25.7717 9.69458 25.9375V30.3125H4.06958V6.5625H21.5696V25.7C21.5696 25.8658 21.6354 26.0247 21.7526 26.1419C21.8698 26.2592 22.0288 26.325 22.1946 26.325C22.3603 26.325 22.5193 26.2592 22.6365 26.1419C22.7537 26.0247 22.8196 25.8658 22.8196 25.7V11.5625H28.4446V19.875C28.4446 20.0408 28.5104 20.1997 28.6276 20.3169C28.7448 20.4342 28.9038 20.5 29.0696 20.5C29.2353 20.5 29.3943 20.4342 29.5115 20.3169C29.6287 20.1997 29.6946 20.0408 29.6946 19.875V11.5625C30.026 11.5622 30.3437 11.4304 30.5781 11.196C30.8124 10.9617 30.9443 10.6439 30.9446 10.3125V9.0625C30.9443 8.73108 30.8124 8.41333 30.5781 8.17898C30.3437 7.94463 30.026 7.81283 29.6946 7.8125H22.8196V6.5625C23.151 6.56217 23.4687 6.43037 23.7031 6.19602C23.9374 5.96167 24.0693 5.64392 24.0696 5.3125V4.0625C24.0693 3.73108 23.9374 3.41333 23.7031 3.17898C23.4687 2.94463 23.151 2.81283 22.8196 2.8125H2.81958C2.48816 2.81283 2.17041 2.94463 1.93606 3.17898C1.70171 3.41333 1.56991 3.73108 1.56958 4.0625V5.3125C1.56991 5.64392 1.70171 5.96167 1.93606 6.19602C2.17041 6.43037 2.48816 6.56217 2.81958 6.5625V30.3125H2.19458ZM10.9446 26.5625H14.6946V30.3125H10.9446V26.5625ZM29.6946 9.0625V10.3125H22.8196V9.0625H29.6946ZM2.81958 4.0625H22.8196V5.3125H2.81958V4.0625ZM28.0283 26.2869C27.943 26.7769 28.0557 27.2807 28.3419 27.6875C28.628 28.0944 29.064 28.3709 29.554 28.4562C30.0439 28.5416 30.5478 28.4288 30.9546 28.1427C31.3614 27.8566 31.638 27.4206 31.7233 26.9306C31.7656 26.688 31.7597 26.4394 31.7059 26.1991C31.6521 25.9588 31.5515 25.7314 31.4098 25.53C31.2681 25.3285 31.0882 25.157 30.8802 25.0251C30.6722 24.8932 30.4403 24.8035 30.1977 24.7612C29.9551 24.719 29.7065 24.7249 29.4662 24.7787C29.2259 24.8325 28.9985 24.9331 28.7971 25.0748C28.5956 25.2164 28.424 25.3964 28.2921 25.6044C28.1602 25.8123 28.0706 26.0443 28.0283 26.2869ZM30.4908 26.7156C30.4575 26.8742 30.3638 27.0136 30.2297 27.1045C30.0955 27.1954 29.9313 27.2306 29.7716 27.2027C29.612 27.1748 29.4695 27.086 29.374 26.955C29.2786 26.824 29.2378 26.6611 29.2602 26.5006C29.2907 26.3392 29.3835 26.1963 29.5186 26.1028C29.6536 26.0093 29.82 25.9727 29.9819 26.0009C30.1437 26.0292 30.2879 26.12 30.3832 26.2538C30.4786 26.3875 30.5168 26.5534 30.4908 26.7156ZM33.1415 29.715C32.6515 29.6295 32.1476 29.7422 31.7407 30.0283C31.3338 30.3144 31.0572 30.7503 30.9718 31.2403C30.8863 31.7303 30.999 32.2342 31.2851 32.6411C31.5711 33.048 32.0071 33.3246 32.4971 33.41C32.9871 33.4955 33.4909 33.3828 33.8978 33.0967C34.3047 32.8106 34.5813 32.3747 34.6668 31.8847C34.7522 31.3947 34.6395 30.8908 34.3535 30.4839C34.0674 30.077 33.6314 29.8004 33.1415 29.715ZM32.7121 32.1781C32.5514 32.147 32.4093 32.054 32.3164 31.9192C32.2235 31.7845 32.1872 31.6186 32.2153 31.4573C32.2433 31.2961 32.3336 31.1522 32.4666 31.0568C32.5995 30.9613 32.7647 30.9219 32.9265 30.9469C33.0872 30.978 33.2292 31.071 33.3221 31.2058C33.415 31.3405 33.4514 31.5064 33.4233 31.6677C33.3952 31.8289 33.305 31.9728 33.172 32.0682C33.039 32.1637 32.8739 32.2031 32.7121 32.1781ZM28.1983 32.1231C28.2553 32.1822 28.3234 32.2294 28.3987 32.2622C28.4739 32.2949 28.5549 32.3125 28.637 32.314C28.719 32.3154 28.8006 32.3007 28.8769 32.2706C28.9533 32.2406 29.023 32.1958 29.0821 32.1388L34.4815 26.9312C34.5406 26.8742 34.5878 26.8062 34.6206 26.7309C34.6534 26.6556 34.671 26.5746 34.6725 26.4925C34.674 26.4104 34.6593 26.3288 34.6292 26.2524C34.5992 26.176 34.5544 26.1063 34.4974 26.0472C34.4404 25.9881 34.3723 25.9408 34.297 25.908C34.2218 25.8752 34.1408 25.8576 34.0587 25.8561C33.9766 25.8546 33.895 25.8693 33.8186 25.8994C33.7422 25.9294 33.6724 25.9742 33.6133 26.0312L28.214 31.2394C28.1549 31.2964 28.1077 31.3645 28.0749 31.4397C28.0422 31.515 28.0246 31.5959 28.0231 31.678C28.0217 31.7601 28.0364 31.8416 28.0665 31.918C28.0965 31.9944 28.1413 32.0641 28.1983 32.1231Z" fill="#078939"/>
<path d="M22.8196 29.0625C22.8221 31.2166 23.6789 33.2818 25.2021 34.805C26.7253 36.3282 28.7905 37.185 30.9446 37.1875C41.7233 36.7413 41.7196 21.3825 30.9446 20.9375C28.7905 20.94 26.7253 21.7968 25.2021 23.32C23.6789 24.8432 22.8221 26.9084 22.8196 29.0625ZM37.8196 29.0625C37.8176 30.8853 37.0926 32.6328 35.8037 33.9217C34.5149 35.2106 32.7673 35.9355 30.9446 35.9375C21.824 35.56 21.8258 22.5638 30.9446 22.1875C32.7673 22.1895 34.5149 22.9145 35.8037 24.2033C37.0926 25.4922 37.8176 27.2398 37.8196 29.0625ZM35.2002 20.7094C35.3479 20.7845 35.5194 20.7979 35.677 20.7467C35.8346 20.6955 35.9655 20.5838 36.0408 20.4363L36.6083 19.3225C36.6485 19.2492 36.6736 19.1685 36.6821 19.0853C36.6905 19.002 36.6822 18.918 36.6575 18.838C36.6329 18.7581 36.5925 18.6839 36.5386 18.6199C36.4848 18.5559 36.4187 18.5033 36.3441 18.4653C36.2696 18.4273 36.1882 18.4047 36.1048 18.3987C36.0213 18.3927 35.9376 18.4036 35.8584 18.4306C35.7792 18.4576 35.7063 18.5003 35.6439 18.556C35.5815 18.6117 35.531 18.6794 35.4952 18.755L34.9277 19.8688C34.8524 20.0164 34.8388 20.1879 34.8899 20.3455C34.941 20.5031 35.0526 20.634 35.2002 20.7094ZM32.894 19.8925C33.056 19.9265 33.2249 19.8949 33.3638 19.8047C33.5027 19.7146 33.6003 19.5731 33.6352 19.4113L33.8952 18.1888C33.9297 18.0266 33.8983 17.8573 33.808 17.7182C33.7177 17.5792 33.5758 17.4817 33.4136 17.4472C33.2514 17.4127 33.0822 17.4441 32.9431 17.5344C32.8041 17.6247 32.7066 17.7666 32.6721 17.9288L32.4121 19.1513C32.3776 19.3134 32.409 19.4825 32.4992 19.6215C32.5895 19.7605 32.7319 19.858 32.894 19.8925ZM37.6358 22.2563C37.7234 22.2564 37.81 22.2382 37.89 22.2026C37.97 22.1671 38.0416 22.1151 38.1002 22.05L38.9371 21.1206C39.0481 20.9974 39.1055 20.8351 39.0969 20.6695C39.0882 20.5039 39.0141 20.3485 38.8908 20.2375C38.7676 20.1265 38.6053 20.0691 38.4397 20.0777C38.2741 20.0864 38.1187 20.1605 38.0077 20.2838L37.1708 21.2125C37.0917 21.303 37.0401 21.4142 37.0222 21.533C37.0042 21.6518 37.0207 21.7733 37.0696 21.8831C37.1185 21.9928 37.1978 22.0863 37.2981 22.1525C37.3985 22.2186 37.5157 22.2546 37.6358 22.2563Z" fill="#078939"/>
</svg>
