<svg width="148" height="33" viewBox="0 0 148 33" fill="none" xmlns="http://www.w3.org/2000/svg">
<path d="M1 31.3368V17.3231C1 17.1647 1.05663 17.0116 1.15966 16.8914L7.50394 9.48979C7.75304 9.19918 8.19574 9.17916 8.47004 9.44612L25.3459 25.8699C25.7749 26.2874 26.4937 25.9678 26.4712 25.3696L26.212 18.5006C26.2056 18.3321 26.1353 18.1724 26.0153 18.0539L12.9151 5.11143C12.6534 4.8529 12.6521 4.43079 12.9122 4.17067L16.6188 0.464052C16.8759 0.206977 17.292 0.204787 17.5518 0.459141L32.8008 15.3904C32.9282 15.5152 33 15.686 33 15.8643V31.3368C33 31.7031 32.7031 32 32.3368 32H22.1614C21.9882 32 21.8218 31.9322 21.6979 31.8111L8.42727 18.8421C8.00732 18.4317 7.30052 18.7292 7.30052 19.3164V26.4077C7.30052 26.5906 7.37602 26.7654 7.50919 26.8907L11.72 30.8538C12.1574 31.2655 11.8661 32 11.2655 32H1.66321C1.29693 32 1 31.7031 1 31.3368Z" fill="#078939" stroke="#F7FCF9" stroke-width="0.331606"/>
<path d="M40.82 23L47.06 9H50.26L56.52 23H53.12L48 10.64H49.28L44.14 23H40.82ZM43.94 20L44.8 17.54H52L52.88 20H43.94ZM57.7525 23V12.24H60.8725V23H57.7525ZM59.3125 10.74C58.7392 10.74 58.2725 10.5733 57.9125 10.24C57.5525 9.90667 57.3725 9.49333 57.3725 9C57.3725 8.50667 57.5525 8.09333 57.9125 7.76C58.2725 7.42667 58.7392 7.26 59.3125 7.26C59.8858 7.26 60.3525 7.42 60.7125 7.74C61.0725 8.04667 61.2525 8.44667 61.2525 8.94C61.2525 9.46 61.0725 9.89333 60.7125 10.24C60.3658 10.5733 59.8992 10.74 59.3125 10.74ZM63.7681 23V12.24H66.7481V15.28L66.3281 14.4C66.6481 13.64 67.1615 13.0667 67.8681 12.68C68.5748 12.28 69.4348 12.08 70.4481 12.08V14.96C70.3148 14.9467 70.1948 14.94 70.0881 14.94C69.9815 14.9267 69.8681 14.92 69.7481 14.92C68.8948 14.92 68.2015 15.1667 67.6681 15.66C67.1481 16.14 66.8881 16.8933 66.8881 17.92V23H63.7681ZM75.4642 14.64H82.2042V17.16H75.4642V14.64ZM75.7042 20.4H83.3242V23H72.4842V9H83.0642V11.6H75.7042V20.4ZM89.2436 23.16C88.3236 23.16 87.4369 23.0533 86.5836 22.84C85.7436 22.6133 85.0769 22.3333 84.5836 22L85.6236 19.76C86.1169 20.0667 86.6969 20.32 87.3636 20.52C88.0436 20.7067 88.7103 20.8 89.3636 20.8C90.0836 20.8 90.5903 20.7133 90.8836 20.54C91.1903 20.3667 91.3436 20.1267 91.3436 19.82C91.3436 19.5667 91.2236 19.38 90.9836 19.26C90.7569 19.1267 90.4503 19.0267 90.0636 18.96C89.6769 18.8933 89.2503 18.8267 88.7836 18.76C88.3303 18.6933 87.8703 18.6067 87.4036 18.5C86.9369 18.38 86.5103 18.2067 86.1236 17.98C85.7369 17.7533 85.4236 17.4467 85.1836 17.06C84.9569 16.6733 84.8436 16.1733 84.8436 15.56C84.8436 14.88 85.0369 14.28 85.4236 13.76C85.8236 13.24 86.3969 12.8333 87.1436 12.54C87.8903 12.2333 88.7836 12.08 89.8236 12.08C90.5569 12.08 91.3036 12.16 92.0636 12.32C92.8236 12.48 93.4569 12.7133 93.9636 13.02L92.9236 15.24C92.4036 14.9333 91.8769 14.7267 91.3436 14.62C90.8236 14.5 90.3169 14.44 89.8236 14.44C89.1303 14.44 88.6236 14.5333 88.3036 14.72C87.9836 14.9067 87.8236 15.1467 87.8236 15.44C87.8236 15.7067 87.9369 15.9067 88.1636 16.04C88.4036 16.1733 88.7169 16.28 89.1036 16.36C89.4903 16.44 89.9103 16.5133 90.3636 16.58C90.8303 16.6333 91.2969 16.72 91.7636 16.84C92.2303 16.96 92.6503 17.1333 93.0236 17.36C93.4103 17.5733 93.7236 17.8733 93.9636 18.26C94.2036 18.6333 94.3236 19.1267 94.3236 19.74C94.3236 20.4067 94.1236 21 93.7236 21.52C93.3236 22.0267 92.7436 22.4267 91.9836 22.72C91.2369 23.0133 90.3236 23.16 89.2436 23.16ZM100.649 23.16C99.3819 23.16 98.3953 22.84 97.6886 22.2C96.9819 21.5467 96.6286 20.58 96.6286 19.3V9.86H99.7486V19.26C99.7486 19.7133 99.8686 20.0667 100.109 20.32C100.349 20.56 100.675 20.68 101.089 20.68C101.582 20.68 102.002 20.5467 102.349 20.28L103.189 22.48C102.869 22.7067 102.482 22.88 102.029 23C101.589 23.1067 101.129 23.16 100.649 23.16ZM94.9686 14.88V12.48H102.429V14.88H94.9686ZM111.54 23V20.9L111.34 20.44V16.68C111.34 16.0133 111.133 15.4933 110.72 15.12C110.32 14.7467 109.7 14.56 108.86 14.56C108.287 14.56 107.72 14.6533 107.16 14.84C106.613 15.0133 106.147 15.2533 105.76 15.56L104.64 13.38C105.227 12.9667 105.933 12.6467 106.76 12.42C107.587 12.1933 108.427 12.08 109.28 12.08C110.92 12.08 112.193 12.4667 113.1 13.24C114.007 14.0133 114.46 15.22 114.46 16.86V23H111.54ZM108.26 23.16C107.42 23.16 106.7 23.02 106.1 22.74C105.5 22.4467 105.04 22.0533 104.72 21.56C104.4 21.0667 104.24 20.5133 104.24 19.9C104.24 19.26 104.393 18.7 104.7 18.22C105.02 17.74 105.52 17.3667 106.2 17.1C106.88 16.82 107.767 16.68 108.86 16.68H111.72V18.5H109.2C108.467 18.5 107.96 18.62 107.68 18.86C107.413 19.1 107.28 19.4 107.28 19.76C107.28 20.16 107.433 20.48 107.74 20.72C108.06 20.9467 108.493 21.06 109.04 21.06C109.56 21.06 110.027 20.94 110.44 20.7C110.853 20.4467 111.153 20.08 111.34 19.6L111.82 21.04C111.593 21.7333 111.18 22.26 110.58 22.62C109.98 22.98 109.207 23.16 108.26 23.16ZM121.684 23.16C120.417 23.16 119.43 22.84 118.724 22.2C118.017 21.5467 117.664 20.58 117.664 19.3V9.86H120.784V19.26C120.784 19.7133 120.904 20.0667 121.144 20.32C121.384 20.56 121.71 20.68 122.124 20.68C122.617 20.68 123.037 20.5467 123.384 20.28L124.224 22.48C123.904 22.7067 123.517 22.88 123.064 23C122.624 23.1067 122.164 23.16 121.684 23.16ZM116.004 14.88V12.48H123.464V14.88H116.004ZM130.983 23.16C129.756 23.16 128.676 22.92 127.743 22.44C126.823 21.96 126.11 21.3067 125.603 20.48C125.096 19.64 124.843 18.6867 124.843 17.62C124.843 16.54 125.09 15.5867 125.583 14.76C126.09 13.92 126.776 13.2667 127.643 12.8C128.51 12.32 129.49 12.08 130.583 12.08C131.636 12.08 132.583 12.3067 133.423 12.76C134.276 13.2 134.95 13.84 135.443 14.68C135.936 15.5067 136.183 16.5 136.183 17.66C136.183 17.78 136.176 17.92 136.163 18.08C136.15 18.2267 136.136 18.3667 136.123 18.5H127.383V16.68H134.483L133.283 17.22C133.283 16.66 133.17 16.1733 132.943 15.76C132.716 15.3467 132.403 15.0267 132.003 14.8C131.603 14.56 131.136 14.44 130.603 14.44C130.07 14.44 129.596 14.56 129.183 14.8C128.783 15.0267 128.47 15.3533 128.243 15.78C128.016 16.1933 127.903 16.6867 127.903 17.26V17.74C127.903 18.3267 128.03 18.8467 128.283 19.3C128.55 19.74 128.916 20.08 129.383 20.32C129.863 20.5467 130.423 20.66 131.063 20.66C131.636 20.66 132.136 20.5733 132.563 20.4C133.003 20.2267 133.403 19.9667 133.763 19.62L135.423 21.42C134.93 21.98 134.31 22.4133 133.563 22.72C132.816 23.0133 131.956 23.16 130.983 23.16ZM141.88 23.16C140.96 23.16 140.074 23.0533 139.22 22.84C138.38 22.6133 137.714 22.3333 137.22 22L138.26 19.76C138.754 20.0667 139.334 20.32 140 20.52C140.68 20.7067 141.347 20.8 142 20.8C142.72 20.8 143.227 20.7133 143.52 20.54C143.827 20.3667 143.98 20.1267 143.98 19.82C143.98 19.5667 143.86 19.38 143.62 19.26C143.394 19.1267 143.087 19.0267 142.7 18.96C142.314 18.8933 141.887 18.8267 141.42 18.76C140.967 18.6933 140.507 18.6067 140.04 18.5C139.574 18.38 139.147 18.2067 138.76 17.98C138.374 17.7533 138.06 17.4467 137.82 17.06C137.594 16.6733 137.48 16.1733 137.48 15.56C137.48 14.88 137.674 14.28 138.06 13.76C138.46 13.24 139.034 12.8333 139.78 12.54C140.527 12.2333 141.42 12.08 142.46 12.08C143.194 12.08 143.94 12.16 144.7 12.32C145.46 12.48 146.094 12.7133 146.6 13.02L145.56 15.24C145.04 14.9333 144.514 14.7267 143.98 14.62C143.46 14.5 142.954 14.44 142.46 14.44C141.767 14.44 141.26 14.5333 140.94 14.72C140.62 14.9067 140.46 15.1467 140.46 15.44C140.46 15.7067 140.574 15.9067 140.8 16.04C141.04 16.1733 141.354 16.28 141.74 16.36C142.127 16.44 142.547 16.5133 143 16.58C143.467 16.6333 143.934 16.72 144.4 16.84C144.867 16.96 145.287 17.1333 145.66 17.36C146.047 17.5733 146.36 17.8733 146.6 18.26C146.84 18.6333 146.96 19.1267 146.96 19.74C146.96 20.4067 146.76 21 146.36 21.52C145.96 22.0267 145.38 22.4267 144.62 22.72C143.874 23.0133 142.96 23.16 141.88 23.16Z" fill="#078939"/>
</svg>
